<svg width="15" height="14" viewBox="0 0 15 14" fill="none" xmlns="http://www.w3.org/2000/svg">
<path d="M7.07538 0.682938C7.27102 0.36828 7.72898 0.36828 7.92462 0.682937L9.90543 3.86879C9.97426 3.97949 10.0836 4.05894 10.2102 4.0902L13.8522 4.98958C14.2119 5.07841 14.3534 5.51395 14.1146 5.79725L11.6968 8.66559C11.6128 8.76527 11.571 8.89381 11.5804 9.02384L11.8505 12.7655C11.8772 13.1351 11.5067 13.4043 11.1634 13.2647L7.68834 11.8516C7.56758 11.8025 7.43242 11.8025 7.31166 11.8516L3.83655 13.2647C3.49333 13.4043 3.12283 13.1351 3.14951 12.7655L3.4196 9.02384C3.42898 8.89382 3.38721 8.76527 3.30319 8.66559L0.885374 5.79725C0.646573 5.51395 0.788089 5.07841 1.1478 4.98958L4.78983 4.0902C4.91639 4.05894 5.02574 3.9795 5.09457 3.86879L7.07538 0.682938Z" fill="white"/>
</svg>
