<svg width="14" height="24" viewBox="0 0 14 24" fill="none" xmlns="http://www.w3.org/2000/svg">
<path d="M8.375 3.42857V3.80357H8.75H12.25C12.6171 3.80357 12.9677 3.94651 13.225 4.19856C13.4821 4.45035 13.625 4.79018 13.625 5.14286C13.625 5.49553 13.4821 5.83537 13.225 6.08716C12.9677 6.3392 12.6171 6.48214 12.25 6.48214H5.25C4.68888 6.48214 4.14923 6.70042 3.75015 7.09136C3.3508 7.48255 3.125 8.01479 3.125 8.57143C3.125 9.12807 3.3508 9.6603 3.75015 10.0515C4.14923 10.4424 4.68888 10.6607 5.25 10.6607H8.75C10.0454 10.6607 11.2862 11.1649 12.1999 12.0599C13.1133 12.9547 13.625 14.1666 13.625 15.4286C13.625 16.6906 13.1133 17.9025 12.1999 18.7972C11.2862 19.6923 10.0454 20.1964 8.75 20.1964H8.375V20.5714V22.2857C8.375 22.6384 8.23205 22.9782 7.97502 23.23C7.71772 23.4821 7.36714 23.625 7 23.625C6.63286 23.625 6.28228 23.4821 6.02498 23.23C5.76795 22.9782 5.625 22.6384 5.625 22.2857V20.5714V20.1964H5.25H1.75C1.38286 20.1964 1.03228 20.0535 0.77498 19.8014C0.517946 19.5497 0.375 19.2098 0.375 18.8571C0.375 18.5045 0.517946 18.1646 0.77498 17.9128C1.03228 17.6608 1.38286 17.5179 1.75 17.5179H8.75C9.31112 17.5179 9.85077 17.2996 10.2499 16.9086C10.6492 16.5174 10.875 15.9852 10.875 15.4286C10.875 14.8719 10.6492 14.3397 10.2499 13.9485C9.85077 13.5576 9.31112 13.3393 8.75 13.3393H5.25C3.9546 13.3393 2.71378 12.8351 1.80011 11.9401C0.886695 11.0453 0.375 9.83342 0.375 8.57143C0.375 7.30944 0.886695 6.09753 1.80011 5.20276C2.71378 4.30774 3.9546 3.80357 5.25 3.80357H5.625V3.42857V1.71429C5.625 1.36161 5.76795 1.02178 6.02498 0.769987C6.28228 0.517942 6.63286 0.375 7 0.375C7.36714 0.375 7.71772 0.517942 7.97502 0.769987C8.23205 1.02178 8.375 1.36161 8.375 1.71429V3.42857Z" stroke="url(#paint0_linear_1_443)" stroke-width="0.75"/>
<defs>
<linearGradient id="paint0_linear_1_443" x1="7" y1="0" x2="7" y2="24" gradientUnits="userSpaceOnUse">
<stop stop-color="#C2A97D"/>
<stop offset="1" stop-color="#A67C46"/>
</linearGradient>
</defs>
</svg>
