<svg width="36" height="32" viewBox="0 0 36 32" fill="none" xmlns="http://www.w3.org/2000/svg">
<g filter="url(#filter0_d_1_451)">
<path d="M27.2826 14.6752L27.0452 15.0156L27.4077 15.2174C28.6857 15.929 29.7481 16.9579 30.4883 18.1994C31.2284 19.4406 31.6203 20.8506 31.625 22.2868C31.625 22.4614 31.59 22.6345 31.5216 22.7962C31.4532 22.9581 31.3527 23.1057 31.2253 23.2304C31.098 23.3551 30.9464 23.4544 30.779 23.5223C30.6116 23.5901 30.4319 23.6251 30.2502 23.625H30.25H16.25H16.2498C16.0681 23.6251 15.8884 23.5901 15.721 23.5223C15.5536 23.4544 15.402 23.3551 15.2747 23.2304C15.1473 23.1057 15.0468 22.9581 14.9784 22.7962C14.91 22.6345 14.875 22.4615 14.875 22.287C14.8813 20.5113 15.4829 18.7859 16.5886 17.376L17.0643 16.7696H16.2936H5.75H5.74979C5.56815 16.7697 5.38844 16.7347 5.22102 16.6669C5.0536 16.599 4.90199 16.4997 4.77466 16.375C4.64733 16.2503 4.54679 16.1027 4.47837 15.9408C4.41002 15.7791 4.37496 15.606 4.375 15.4315C4.37975 13.9953 4.77164 12.5853 5.51169 11.344C6.25186 10.1026 7.31429 9.07361 8.59226 8.36202L8.95414 8.16052L8.71777 7.82038C8.21997 7.10407 7.93146 6.26915 7.88248 5.40544C7.83349 4.54174 8.02582 3.68092 8.43934 2.91543C8.85289 2.14986 9.47232 1.50815 10.2319 1.06014C10.9915 0.612091 11.8621 0.375 12.75 0.375C13.6379 0.375 14.5085 0.612091 15.2681 1.06014C16.0277 1.50815 16.6471 2.14986 17.0607 2.91543C17.4742 3.68092 17.6665 4.54174 17.6175 5.40544C17.5685 6.26915 17.28 7.10407 16.7822 7.82038L16.5446 8.1623L16.9095 8.36296C17.5079 8.69213 18.0627 9.09183 18.5615 9.55302L18.8911 9.85783L19.1323 9.47919C19.4744 8.94222 19.9229 8.47698 20.4517 8.11106C20.9806 7.74514 21.5791 7.48598 22.2123 7.34913C22.8455 7.21228 23.5003 7.20056 24.1382 7.31469C24.7762 7.42881 25.384 7.66641 25.9263 8.01324C26.4685 8.36006 26.9341 8.80903 27.296 9.3335C27.658 9.85795 27.9091 10.4474 28.0351 11.0674C28.1611 11.6873 28.1595 12.3256 28.0304 12.9449C27.9013 13.5642 27.6472 14.1525 27.2826 14.6752ZM16.25 24H30.25L15.0123 23.4983C15.1748 23.6575 15.3678 23.7837 15.5801 23.8698C15.7925 23.9559 16.0201 24.0001 16.25 24ZM23.25 9.91423L23.2493 9.91424C22.6887 9.91529 22.1499 10.1338 21.7512 10.5243C21.3522 10.915 21.1261 11.4463 21.125 12.0023V12.0031C21.125 12.418 21.2507 12.8229 21.4852 13.1666C21.7196 13.5102 22.052 13.7768 22.4393 13.934C22.8267 14.0911 23.2524 14.1321 23.6631 14.0521C24.0738 13.9721 24.4521 13.7744 24.7498 13.4829C25.0476 13.1913 25.2513 12.8188 25.3339 12.4121C25.4165 12.0053 25.374 11.5838 25.2122 11.2011C25.0504 10.8186 24.7769 10.4929 24.4276 10.2643C24.0783 10.0358 23.6686 9.91424 23.25 9.91423ZM10.625 5.1477L10.625 5.14844C10.6261 5.70446 10.8522 6.23579 11.2512 6.62652C11.6499 7.017 12.1887 7.23549 12.7493 7.23654H12.75C13.1686 7.23654 13.5783 7.11503 13.9276 6.8865C14.2769 6.65791 14.5504 6.3322 14.7122 5.94964C14.874 5.56699 14.9165 5.14546 14.8339 4.7387C14.7513 4.332 14.5476 3.95951 14.2498 3.66791C13.9521 3.37639 13.5738 3.17871 13.1631 3.0987C12.7524 3.0187 12.3267 3.0597 11.9393 3.21681C11.552 3.37396 11.2196 3.64059 10.9852 3.98419C10.7507 4.32788 10.625 4.7328 10.625 5.1477ZM17.6992 14.0919H18.2337L18.0519 13.5893C17.6625 12.5133 16.943 11.5831 15.9936 10.9255C15.0443 10.2681 13.9113 9.91516 12.7503 9.91424H12.7497C11.5887 9.91516 10.4557 10.2681 9.5064 10.9255C8.55701 11.5831 7.83751 12.5133 7.44817 13.5893L7.26632 14.0919H7.8008H17.6992ZM17.9481 20.445L17.7668 20.9473H18.3008H28.1992H28.7332L28.552 20.445C28.1634 19.3683 27.4441 18.4375 26.4944 17.7798C25.5449 17.1222 24.4114 16.7696 23.25 16.7696C22.0887 16.7696 20.9552 17.1222 20.0056 17.7798C19.056 18.4375 18.3366 19.3683 17.9481 20.445Z" stroke="url(#paint0_linear_1_451)" stroke-width="0.75" shape-rendering="crispEdges"/>
</g>
<defs>
<filter id="filter0_d_1_451" x="0" y="0" width="36" height="32" filterUnits="userSpaceOnUse" color-interpolation-filters="sRGB">
<feFlood flood-opacity="0" result="BackgroundImageFix"/>
<feColorMatrix in="SourceAlpha" type="matrix" values="0 0 0 0 0 0 0 0 0 0 0 0 0 0 0 0 0 0 127 0" result="hardAlpha"/>
<feOffset dy="4"/>
<feGaussianBlur stdDeviation="2"/>
<feComposite in2="hardAlpha" operator="out"/>
<feColorMatrix type="matrix" values="0 0 0 0 0 0 0 0 0 0 0 0 0 0 0 0 0 0 0.25 0"/>
<feBlend mode="normal" in2="BackgroundImageFix" result="effect1_dropShadow_1_451"/>
<feBlend mode="normal" in="SourceGraphic" in2="effect1_dropShadow_1_451" result="shape"/>
</filter>
<linearGradient id="paint0_linear_1_451" x1="18" y1="0" x2="18" y2="24" gradientUnits="userSpaceOnUse">
<stop stop-color="#C2A97D"/>
<stop offset="1" stop-color="#A67C46"/>
</linearGradient>
</defs>
</svg>
