<svg width="28" height="24" viewBox="0 0 28 24" fill="none" xmlns="http://www.w3.org/2000/svg">
<path d="M28 22.2857C28.0001 22.5109 27.955 22.7339 27.8671 22.9419C27.7792 23.1499 27.6503 23.339 27.4877 23.4982C27.3252 23.6574 27.1322 23.7837 26.9198 23.8698C26.7075 23.9559 26.4799 24.0001 26.25 24H5.25C3.85809 23.9985 2.52363 23.4562 1.53939 22.492C0.555163 21.5279 0.001544 20.2206 0 18.8571L28 22.2857ZM28 22.2857V8.57143V22.2857ZM24.125 6.85714V7.23214H24.5H26.25V6.85714L26.2502 7.23214C26.4318 7.23204 26.6115 7.26702 26.779 7.3349C26.9464 7.40277 27.098 7.5021 27.2253 7.62685C27.3526 7.75157 27.4532 7.89924 27.5216 8.0612C27.59 8.22314 27.6251 8.39642 27.625 8.57121V8.57143V22.2857V22.2859C27.6251 22.4607 27.59 22.634 27.5216 22.7959C27.4532 22.9579 27.3526 23.1056 27.2253 23.2303C27.098 23.355 26.9464 23.4544 26.779 23.5222C26.6115 23.5901 26.4318 23.6251 26.2502 23.625H26.25H5.25041C3.95535 23.6236 2.71525 23.1189 1.80181 22.2241C0.888682 21.3296 0.376484 20.1185 0.375 18.8569V5.14308C0.376484 3.88147 0.888681 2.67036 1.80181 1.77586C2.71521 0.881107 3.95522 0.376456 5.25022 0.375L22.75 0.375L22.7502 0.375C22.9318 0.374899 23.1115 0.409879 23.279 0.477756C23.4464 0.545628 23.598 0.64496 23.7253 0.769703C23.8526 0.894429 23.9532 1.0421 24.0216 1.20405C24.09 1.36599 24.1251 1.53928 24.125 1.71407V1.71429V6.85714ZM21.375 3.42857V3.05357H21H5.25C4.68888 3.05357 4.14923 3.27185 3.75015 3.66279C3.3508 4.05398 3.125 4.58622 3.125 5.14286C3.125 5.6995 3.3508 6.23173 3.75015 6.62293C4.14923 7.01386 4.68888 7.23214 5.25 7.23214H21H21.375V6.85714V3.42857ZM5.24952 20.9464H5.25H24.5H24.875V20.5714V10.2857V9.91071H24.5H5.25178C4.69712 9.90515 4.14773 9.80589 3.62781 9.6174L3.125 9.43511V9.96994L3.125 18.8571L3.125 18.8576C3.12574 19.4139 3.35172 19.9456 3.75081 20.3366C4.14964 20.7273 4.68875 20.9457 5.24952 20.9464Z" stroke="url(#paint0_linear_1_471)" stroke-width="0.75"/>
<defs>
<linearGradient id="paint0_linear_1_471" x1="14" y1="0" x2="14" y2="24" gradientUnits="userSpaceOnUse">
<stop stop-color="#C2A97D"/>
<stop offset="1" stop-color="#A67C46"/>
</linearGradient>
</defs>
</svg>
