<svg width="26" height="24" viewBox="0 0 26 24" fill="none" xmlns="http://www.w3.org/2000/svg">
<path d="M24.5561 8.31158L24.5562 8.31159C24.7895 8.34435 25.0073 8.43944 25.1855 8.58464C25.3634 8.7297 25.4943 8.91868 25.5652 9.12929C25.6357 9.33972 25.644 9.5646 25.5893 9.77908C25.5345 9.99366 25.4184 10.1908 25.2524 10.3475L20.1759 15.1334L20.0286 15.2723L20.0639 15.4717L21.262 22.2284C21.262 22.2284 21.262 22.2284 21.262 22.2285C21.3006 22.4461 21.2755 22.6701 21.1891 22.8754C21.1026 23.0809 20.9577 23.2607 20.7689 23.3932C20.5801 23.5259 20.3555 23.6055 20.1203 23.6219C19.8852 23.6382 19.6506 23.5905 19.4432 23.485L19.4431 23.4849L13.17 20.2953L13 20.2089L12.8301 20.2953L6.55699 23.4849L6.55685 23.485C6.34951 23.5905 6.11487 23.6382 5.87973 23.6219C5.64461 23.6055 5.41996 23.5259 5.23113 23.3932C5.0424 23.2607 4.89744 23.0809 4.81097 22.8754C4.72455 22.67 4.69947 22.4461 4.73804 22.2284L5.93613 15.4717L5.97149 15.2723L5.82413 15.1334L0.747587 10.3474C0.581432 10.1907 0.465309 9.99347 0.410598 9.7788C0.35591 9.56421 0.364345 9.33923 0.435134 9.12878C0.50596 8.91823 0.636867 8.72931 0.8148 8.58434C0.992841 8.43929 1.21059 8.34436 1.44371 8.31172L1.44397 8.31168L8.45816 7.32461L8.65127 7.29743L8.73991 7.12373L11.8773 0.976312L11.8776 0.975703C12.0697 0.597591 12.5077 0.375 13 0.375C13.4924 0.375 13.9304 0.597591 14.1225 0.975703L14.1228 0.976311L17.2602 7.12373L17.3488 7.29744L17.5419 7.32461L24.5561 8.31158ZM17.4978 14.4905C17.5591 14.3075 17.666 14.1405 17.8103 14.0043L21.1396 10.8655L21.7075 10.3301L20.9346 10.2213L16.3342 9.57353L16.3337 9.57346C16.1312 9.54521 15.9398 9.46977 15.7758 9.35458C15.6119 9.23944 15.4807 9.08831 15.3925 8.91512L15.3924 8.9148L13.334 4.88253L13 4.22822L12.666 4.88253L10.6077 8.9148L10.6075 8.91512C10.5193 9.08831 10.3882 9.23943 10.2243 9.35457C10.0604 9.46976 9.86893 9.5452 9.66643 9.57347L9.66599 9.57353L5.06551 10.2213L4.29271 10.3301L4.86055 10.8655L8.18966 14.0043C8.1897 14.0043 8.18974 14.0043 8.18978 14.0044C8.18979 14.0044 8.1898 14.0044 8.18981 14.0044C8.33404 14.1406 8.44084 14.3076 8.5022 14.4905C8.56356 14.6734 8.57795 14.8676 8.54438 15.0567L8.54435 15.0568L7.75894 19.4897L7.62773 20.2302L8.29814 19.8894L12.413 17.7973L12.4134 17.7971C12.5936 17.7052 12.795 17.6568 13 17.6568C13.205 17.6568 13.4064 17.7052 13.5867 17.7971L13.587 17.7973L17.7018 19.8894L18.3722 20.2302L18.241 19.4897L17.4556 15.0568L17.4556 15.0567C17.422 14.8676 17.4364 14.6734 17.4978 14.4905Z" stroke="url(#paint0_linear_1_447)" stroke-width="0.75"/>
<defs>
<linearGradient id="paint0_linear_1_447" x1="13" y1="0" x2="13" y2="24" gradientUnits="userSpaceOnUse">
<stop stop-color="#C2A97D"/>
<stop offset="1" stop-color="#A67C46"/>
</linearGradient>
</defs>
</svg>
