<svg width="24" height="24" viewBox="0 0 24 24" fill="none" xmlns="http://www.w3.org/2000/svg">
<path d="M23.2958 0.705788L23.2946 0.704634C23.1478 0.556471 22.9623 0.45254 22.7593 0.404688L22.8453 0.0398542L22.7593 0.404688C22.5562 0.356837 22.3438 0.36699 22.1463 0.433991L22.1444 0.434623L1.14449 7.43477L1.14422 7.43486C0.937066 7.50374 0.754463 7.63145 0.618715 7.8024C0.482966 7.97335 0.399947 8.18013 0.379798 8.39748C0.359649 8.61483 0.403242 8.83335 0.505253 9.02633C0.607264 9.21932 0.763276 9.37842 0.954234 9.4842L0.954627 9.48442L9.57961 14.2757L9.67327 14.3277L9.72531 14.4214L14.5168 23.046L14.5169 23.0461C14.6142 23.2215 14.7567 23.3676 14.9296 23.4694C15.1025 23.5712 15.2994 23.6249 15.5 23.625L23.2958 0.705788ZM23.2958 0.705788C23.4435 0.853526 23.5471 1.03948 23.595 1.24279C23.6429 1.44611 23.6333 1.65875 23.5671 1.85689L23.5671 1.85705L16.5666 22.8561L16.5666 22.8561M23.2958 0.705788L16.5666 22.8561M16.5666 22.8561C16.4976 23.0632 16.3699 23.2457 16.199 23.3815C16.0281 23.5172 15.8214 23.6004 15.6041 23.6208C15.5724 23.6238 15.5379 23.625 15.5001 23.625L16.5666 22.8561ZM14.828 18.9735L15.242 19.7185L15.5115 18.9099L20.4846 3.99123L20.7218 3.27972L20.0103 3.51688L5.09093 8.48977L4.28223 8.75933L5.02739 9.17333L10.0576 11.9681L10.3049 12.1055L10.5049 11.9055L13.7056 8.70497C13.9165 8.49403 14.2027 8.37553 14.501 8.37553C14.7993 8.37553 15.0854 8.49403 15.2964 8.70497C15.5073 8.9159 15.6258 9.20199 15.6258 9.50029C15.6258 9.79858 15.5073 10.0847 15.2964 10.2956L12.0956 13.4961L11.8956 13.6962L12.033 13.9434L14.828 18.9735Z" stroke="url(#paint0_linear_1_467)" stroke-width="0.75"/>
<defs>
<linearGradient id="paint0_linear_1_467" x1="12" y1="0" x2="12" y2="24" gradientUnits="userSpaceOnUse">
<stop stop-color="#C2A97D"/>
<stop offset="1" stop-color="#A67C46"/>
</linearGradient>
</defs>
</svg>
