<svg width="24" height="24" viewBox="0 0 24 24" fill="none" xmlns="http://www.w3.org/2000/svg">
<path d="M6.82708 9H1.5C1.30299 8.99989 1.10788 9.03861 0.925843 9.11395C0.743804 9.1893 0.578401 9.29978 0.439091 9.43909C0.299781 9.5784 0.189296 9.7438 0.113953 9.92584C0.0386109 10.1079 -0.000111495 10.303 0 10.5L6.82708 9ZM17.5963 6.021L17.6161 6.375H17.9707H19.4996C20.5933 6.37621 21.642 6.81124 22.4154 7.58465C23.1888 8.35805 23.6238 9.40666 23.625 10.5004V19.4996C23.6238 20.5933 23.1888 21.642 22.4154 22.4154C21.642 23.1888 20.5933 23.6238 19.4996 23.625H1.5H1.49979C1.35206 23.6251 1.20575 23.596 1.06925 23.5396C0.932748 23.4831 0.808719 23.4002 0.704257 23.2957C0.599792 23.1913 0.516945 23.0673 0.460449 22.9307C0.403953 22.7942 0.374916 22.6479 0.375 22.5002V22.5L0.375 10.5L0.375 10.4998C0.374916 10.3521 0.403953 10.2058 0.460449 10.0693C0.516945 9.93275 0.599793 9.80872 0.704256 9.70426C0.808719 9.59979 0.932748 9.51694 1.06925 9.46045C1.20575 9.40395 1.35206 9.37492 1.49979 9.375H1.5H6.82708H6.99524L7.1071 9.24942C9.35449 6.72634 9.375 4.22055 9.375 1.5V1.49979C9.37492 1.35206 9.40395 1.20575 9.46045 1.06925C9.51694 0.932748 9.59979 0.808719 9.70426 0.704256C9.80872 0.599793 9.93275 0.516945 10.0693 0.460449C10.2058 0.403953 10.3521 0.374916 10.4998 0.375H10.5C13.6006 0.375 15.3092 1.16061 16.2703 2.20572C17.2387 3.25876 17.5194 4.64952 17.5963 6.021ZM3 11.625H2.625V12V21V21.375H3H6H6.375V21V12V11.625H6H3ZM21.375 19.5005V19.5V10.5V10.4995C21.3744 10.0026 21.1767 9.52614 20.8253 9.17474C20.4739 8.82335 19.9974 8.62564 19.5005 8.625H19.5H16.5H16.4998C16.3521 8.62508 16.2058 8.59605 16.0693 8.53955C15.9327 8.48306 15.8087 8.40021 15.7043 8.29574C15.5998 8.19128 15.5169 8.06725 15.4604 7.93075C15.404 7.79425 15.3749 7.64794 15.375 7.50021V7.5V7.48737C15.375 6.84166 15.375 6.24322 15.3263 5.71348C15.2772 5.17945 15.1765 4.68454 14.957 4.25445C14.4962 3.35157 13.5868 2.8675 12.0244 2.69752L11.6207 2.6536L11.609 3.05956C11.5371 5.56432 11.1189 8.21994 8.72289 10.8479L8.625 10.9553V11.1006V21V21.375H9H19.5H19.5005C19.9974 21.3744 20.4739 21.1767 20.8253 20.8253C21.1767 20.4739 21.3744 19.9974 21.375 19.5005Z" stroke="url(#paint0_linear_1_459)" stroke-width="0.75"/>
<defs>
<linearGradient id="paint0_linear_1_459" x1="12" y1="0" x2="12" y2="24" gradientUnits="userSpaceOnUse">
<stop stop-color="#C2A97D"/>
<stop offset="1" stop-color="#A67C46"/>
</linearGradient>
</defs>
</svg>
