<svg width="26" height="24" viewBox="0 0 26 24" fill="none" xmlns="http://www.w3.org/2000/svg">
<path d="M14.6166 17.3914C17.0099 17.1112 19.1242 16.2268 20.6481 14.972C22.1711 13.7179 23.125 12.0731 23.125 10.2857C23.125 8.268 21.9141 6.45198 20.0724 5.15671C18.2273 3.85905 15.7131 3.05357 13 3.05357C10.2869 3.05357 7.77273 3.85905 5.92762 5.15671C4.0859 6.45198 2.875 8.268 2.875 10.2857C2.875 13.0281 5.16245 15.5219 8.52172 16.7307L8.52204 16.7308C8.76605 16.8183 8.98161 16.9856 9.13599 17.213C9.29053 17.4406 9.37498 17.7159 9.375 18V19.4883V20.1156L9.92754 19.8186L14.1916 17.5267L14.1916 17.5267C14.3252 17.4549 14.4691 17.4092 14.6166 17.3914ZM14.6166 17.3914C14.6164 17.3914 14.6163 17.3914 14.6162 17.3914L14.5726 17.019L14.6174 17.3913C14.6171 17.3913 14.6169 17.3914 14.6166 17.3914ZM6.875 19.1786V18.9364L6.65429 18.8368C2.71623 17.0591 0.375 13.8495 0.375 10.2857C0.375 4.89806 5.95238 0.375 13 0.375C20.0476 0.375 25.625 4.89806 25.625 10.2857C25.625 15.0798 21.323 19.186 15.1826 20.0173L15.1153 20.0265L15.0554 20.0586L8.68538 23.4822L8.68505 23.4824C8.49589 23.5843 8.28652 23.6326 8.07666 23.624C7.86679 23.6155 7.66114 23.5502 7.47938 23.4327L7.27586 23.7477L7.47937 23.4327C7.29745 23.3152 7.1449 23.1488 7.03823 22.9478C6.9315 22.7467 6.87489 22.5187 6.875 22.2859V22.2857V19.1786Z" stroke="url(#paint0_linear_1_455)" stroke-width="0.75"/>
<defs>
<linearGradient id="paint0_linear_1_455" x1="13" y1="0" x2="13" y2="24" gradientUnits="userSpaceOnUse">
<stop stop-color="#C2A97D"/>
<stop offset="1" stop-color="#A67C46"/>
</linearGradient>
</defs>
</svg>
