<svg width="28" height="24" viewBox="0 0 28 24" fill="none" xmlns="http://www.w3.org/2000/svg">
<path d="M24.125 10.6015V10.8688L24.3777 10.956C25.3265 11.2834 26.1473 11.89 26.7282 12.6912C27.3089 13.4921 27.6218 14.4485 27.625 15.4292C27.625 15.4294 27.625 15.4296 27.625 15.4297L27.625 18.8567C27.6236 20.1184 27.1114 21.3296 26.1982 22.2241C25.2847 23.1189 24.0447 23.6236 22.7496 23.625C22.568 23.6251 22.3884 23.5901 22.221 23.5222C22.0536 23.4544 21.902 23.355 21.7747 23.2303C21.6474 23.1056 21.5468 22.9579 21.4784 22.7959C21.41 22.634 21.3749 22.4607 21.375 22.2859V22.2857V10.2857C21.375 8.36511 20.5961 6.52476 19.2122 5.1691C17.8285 3.81369 15.9535 3.05357 14 3.05357C12.0465 3.05357 10.1715 3.81369 8.78784 5.1691C7.40393 6.52476 6.625 8.36511 6.625 10.2857V22.2857V22.2859C6.6251 22.4607 6.59004 22.634 6.52162 22.7959C6.45319 22.9579 6.35264 23.1056 6.22531 23.2303L6.48773 23.4982L6.22531 23.2303C6.09797 23.355 5.94636 23.4544 5.77895 23.5222C5.61159 23.5901 5.43197 23.6251 5.25041 23.625C3.95535 23.6236 2.71525 23.1189 1.80181 22.2241C0.888681 21.3296 0.376484 20.1185 0.375 18.8569V15.4292C0.378201 14.4485 0.691079 13.4921 1.27181 12.6912C1.85273 11.89 2.6735 11.2834 3.62233 10.956L3.875 10.8688V10.6015V10.2857C3.875 7.65975 4.93982 5.13974 6.8378 3.2805C8.73604 1.421 11.3122 0.375 14 0.375C16.6878 0.375 19.264 1.421 21.1622 3.2805C23.0602 5.13974 24.125 7.65975 24.125 10.2857V10.6015Z" stroke="url(#paint0_linear_1_463)" stroke-width="0.75"/>
<defs>
<linearGradient id="paint0_linear_1_463" x1="14" y1="0" x2="14" y2="24" gradientUnits="userSpaceOnUse">
<stop stop-color="#C2A97D"/>
<stop offset="1" stop-color="#A67C46"/>
</linearGradient>
</defs>
</svg>
