<svg width="65" height="65" viewBox="0 0 65 65" fill="none" xmlns="http://www.w3.org/2000/svg">
<g id="Group 44" filter="url(#filter0_d_2_3911)">
<path id="Vector" d="M26 29.6111C26 28.0156 27.2934 26.7222 28.8889 26.7222H36.1111C37.7066 26.7222 39 28.0156 39 29.6111V36.1111C39 37.7065 37.7066 38.9999 36.1111 38.9999H28.8889C27.2934 38.9999 26 37.7065 26 36.1111V29.6111Z" stroke="url(#paint0_linear_2_3911)"/>
<path id="Vector_2" d="M29.6113 26V28.1667" stroke="url(#paint1_linear_2_3911)" stroke-linecap="round"/>
<path id="Vector_3" d="M35.3887 26V28.1667" stroke="url(#paint2_linear_2_3911)" stroke-linecap="round"/>
<path id="Vector_4" d="M30.334 33.2222H34.6673" stroke="url(#paint3_linear_2_3911)" stroke-linecap="round"/>
</g>
<defs>
<filter id="filter0_d_2_3911" x="0.5" y="0.5" width="64" height="64" filterUnits="userSpaceOnUse" color-interpolation-filters="sRGB">
<feFlood flood-opacity="0" result="BackgroundImageFix"/>
<feColorMatrix in="SourceAlpha" type="matrix" values="0 0 0 0 0 0 0 0 0 0 0 0 0 0 0 0 0 0 127 0" result="hardAlpha"/>
<feOffset/>
<feGaussianBlur stdDeviation="12.5"/>
<feComposite in2="hardAlpha" operator="out"/>
<feColorMatrix type="matrix" values="0 0 0 0 0.815686 0 0 0 0 0.588235 0 0 0 0 0.243137 0 0 0 0.35 0"/>
<feBlend mode="normal" in2="BackgroundImageFix" result="effect1_dropShadow_2_3911"/>
<feBlend mode="normal" in="SourceGraphic" in2="effect1_dropShadow_2_3911" result="shape"/>
</filter>
<linearGradient id="paint0_linear_2_3911" x1="32.5" y1="26.7222" x2="32.5" y2="38.9999" gradientUnits="userSpaceOnUse">
<stop stop-color="#C2A97D"/>
<stop offset="1" stop-color="#A67C46"/>
</linearGradient>
<linearGradient id="paint1_linear_2_3911" x1="30.1113" y1="26" x2="30.1113" y2="28.1667" gradientUnits="userSpaceOnUse">
<stop stop-color="#C2A97D"/>
<stop offset="1" stop-color="#A67C46"/>
</linearGradient>
<linearGradient id="paint2_linear_2_3911" x1="35.8887" y1="26" x2="35.8887" y2="28.1667" gradientUnits="userSpaceOnUse">
<stop stop-color="#C2A97D"/>
<stop offset="1" stop-color="#A67C46"/>
</linearGradient>
<linearGradient id="paint3_linear_2_3911" x1="32.5007" y1="33.2222" x2="32.5007" y2="34.2222" gradientUnits="userSpaceOnUse">
<stop stop-color="#C2A97D"/>
<stop offset="1" stop-color="#A67C46"/>
</linearGradient>
</defs>
</svg>
