<svg width="15" height="14" viewBox="0 0 15 14" fill="none" xmlns="http://www.w3.org/2000/svg">
<path d="M7.43054 0.814941C7.52836 0.657612 7.75734 0.657613 7.85516 0.814941L9.83597 4.00079C9.93922 4.16685 10.1032 4.28603 10.2931 4.33291L13.9351 5.23229C14.115 5.2767 14.1857 5.49447 14.0663 5.63612L11.6485 8.50446C11.5225 8.65398 11.4598 8.8468 11.4739 9.04184L11.744 12.7835C11.7573 12.9683 11.5721 13.1029 11.4005 13.0331L7.92537 11.62C7.74423 11.5463 7.54148 11.5463 7.36034 11.62L3.88524 13.0331C3.71362 13.1029 3.52837 12.9683 3.54171 12.7835L3.8118 9.04184C3.82588 8.8468 3.76323 8.65398 3.6372 8.50446L1.21938 5.63612C1.09998 5.49447 1.17074 5.2767 1.35059 5.23229L4.99262 4.33291C5.18246 4.28603 5.34648 4.16685 5.44974 4.00079L7.43054 0.814941Z" stroke="white" stroke-width="0.5"/>
</svg>
