<svg width="12" height="10" viewBox="0 0 12 10" fill="none" xmlns="http://www.w3.org/2000/svg">
<path fill-rule="evenodd" clip-rule="evenodd" d="M0 0.625C0 0.279822 0.298477 0 0.666667 0H11.3333C11.7015 0 12 0.279822 12 0.625C12 0.970178 11.7015 1.25 11.3333 1.25H0.666667C0.298477 1.25 0 0.970178 0 0.625ZM0 5C0 4.65482 0.298477 4.375 0.666667 4.375H8C8.36819 4.375 8.66667 4.65482 8.66667 5C8.66667 5.34518 8.36819 5.625 8 5.625H0.666667C0.298477 5.625 0 5.34518 0 5ZM0 9.375C0 9.02982 0.298477 8.75 0.666667 8.75H4.66667C5.03486 8.75 5.33333 9.02982 5.33333 9.375C5.33333 9.72018 5.03486 10 4.66667 10H0.666667C0.298477 10 0 9.72018 0 9.375Z" fill="white"/>
</svg>
