<svg width="20" height="20" viewBox="0 0 20 20" fill="none" xmlns="http://www.w3.org/2000/svg">
<g id="Frame 974" clip-path="url(#clip0_2_4985)">
<path id="Union" fill-rule="evenodd" clip-rule="evenodd" d="M11.8333 1C11.8333 0.447715 11.3856 0 10.8333 0C10.2811 0 9.83334 0.447715 9.83334 1V1.81831H1.11111C0.497461 1.81831 0 2.27623 0 2.84111C0 3.40599 0.497461 3.86391 1.11111 3.86391L9.83334 3.86391V4.27332C9.83334 4.8256 10.2811 5.27332 10.8333 5.27332C11.3856 5.27332 11.8333 4.8256 11.8333 4.27332V1ZM12.2132 2.84111C12.2132 2.27623 12.303 1.81831 12.9167 1.81831H18.8889C19.5025 1.81831 20 2.27623 20 2.84111C20 3.40599 19.5025 3.86391 18.8889 3.86391L12.9167 3.86391C12.303 3.86391 12.2132 3.40599 12.2132 2.84111ZM0 10.0007C0 9.43585 0.497461 8.97793 1.11111 8.97793H10.4167C11.0303 8.97793 11.25 9.43585 11.25 10.0007C11.25 10.5656 11.0303 11.0235 10.4167 11.0235H1.11111C0.497461 11.0235 0 10.5656 0 10.0007ZM7.91667 17.1603C7.91667 16.5955 8.13635 16.1375 8.75 16.1375H18.8889C19.5025 16.1375 20 16.5955 20 17.1603C20 17.7252 19.5025 18.1832 18.8889 18.1832H8.75C8.13635 18.1832 7.91667 17.7252 7.91667 17.1603ZM13.5 11.6375V11.0235H18.8889C19.5025 11.0235 20 10.5656 20 10.0007C20 9.43585 19.5025 8.97793 18.8889 8.97793H13.5V8.36415C13.5 7.81186 13.0523 7.36415 12.5 7.36415C11.9477 7.36415 11.5 7.81186 11.5 8.36415V11.6375C11.5 12.1897 11.9477 12.6375 12.5 12.6375C13.0523 12.6375 13.5 12.1897 13.5 11.6375ZM0 17.1603C0 16.5955 0.497461 16.1375 1.11111 16.1375H5.66666V15.7277C5.66666 15.1754 6.11437 14.7277 6.66666 14.7277C7.21894 14.7277 7.66666 15.1754 7.66666 15.7277V19.001C7.66666 19.5533 7.21894 20.001 6.66666 20.001C6.11437 20.001 5.66666 19.5533 5.66666 19.001V18.1832H1.11111C0.497461 18.1832 0 17.7252 0 17.1603Z" fill="url(#paint0_linear_2_4985)"/>
</g>
<defs>
<linearGradient id="paint0_linear_2_4985" x1="10" y1="0" x2="10" y2="20.001" gradientUnits="userSpaceOnUse">
<stop stop-color="#C2A97D"/>
<stop offset="1" stop-color="#A67C46"/>
</linearGradient>
<clipPath id="clip0_2_4985">
<rect width="20" height="20" fill="white"/>
</clipPath>
</defs>
</svg>
