<svg width="60" height="16" viewBox="0 0 60 16" fill="none" xmlns="http://www.w3.org/2000/svg">
<path d="M2.88086 15C2.88086 15 2.88086 10.9473 2.88086 2.8418C2.88086 2.8418 1.96615 2.8418 0.136719 2.8418C0.136719 2.8418 0.136719 1.9694 0.136719 0.224609C0.136719 0.224609 2.8776 0.224609 8.35938 0.224609C8.35938 0.224609 8.35938 1.09701 8.35938 2.8418C8.35938 2.8418 7.44466 2.8418 5.61523 2.8418C5.61523 2.8418 5.61523 6.89453 5.61523 15C5.61523 15 4.70378 15 2.88086 15ZM9.26758 15C9.26758 15 9.26758 11.3053 9.26758 3.91602C9.26758 3.91602 10.0781 3.91602 11.6992 3.91602C11.6992 3.91602 11.6992 4.27734 11.6992 5C12.0508 4.48568 12.3958 4.13411 12.7344 3.94531C13.0729 3.75651 13.5286 3.66211 14.1016 3.66211H14.3066C14.3066 3.66211 14.3066 4.51497 14.3066 6.2207C12.7181 6.25977 11.9238 7.13216 11.9238 8.83789C11.9238 8.83789 11.9238 10.8919 11.9238 15C11.9238 15 11.0384 15 9.26758 15ZM26.5918 3.91602C26.5918 3.91602 26.5918 7.61068 26.5918 15C26.5918 15 25.7812 15 24.1602 15C24.1602 15 24.1602 14.5215 24.1602 13.5645C23.6263 14.1699 23.0729 14.6061 22.5 14.873C21.9336 15.1335 21.2598 15.2637 20.4785 15.2637C19.4108 15.2637 18.4505 15.0195 17.5977 14.5312C16.7513 14.0365 16.0872 13.3496 15.6055 12.4707C15.1302 11.5918 14.8926 10.6022 14.8926 9.50195C14.8926 8.38867 15.1335 7.38932 15.6152 6.50391C16.097 5.61198 16.7676 4.91536 17.627 4.41406C18.4863 3.91276 19.4564 3.66211 20.5371 3.66211C21.3379 3.66211 22.028 3.80208 22.6074 4.08203C23.1868 4.35547 23.7044 4.79492 24.1602 5.40039V3.91602H26.5918ZM20.7715 6.10352C19.847 6.10352 19.082 6.42904 18.4766 7.08008C17.8776 7.73112 17.5781 8.55794 17.5781 9.56055C17.5781 10.5306 17.8809 11.3184 18.4863 11.9238C19.0983 12.5228 19.8893 12.8223 20.8594 12.8223C21.8229 12.8223 22.5977 12.5163 23.1836 11.9043C23.776 11.2923 24.0723 10.4915 24.0723 9.50195C24.0723 8.49935 23.763 7.68229 23.1445 7.05078C22.5326 6.41927 21.7415 6.10352 20.7715 6.10352ZM32.1973 15C32.1973 15 30.7096 11.3053 27.7344 3.91602C27.7344 3.91602 28.7207 3.91602 30.6934 3.91602C30.6934 3.91602 31.5462 6.36393 33.252 11.2598C33.252 11.2598 34.0918 8.81185 35.7715 3.91602C35.7715 3.91602 36.7741 3.91602 38.7793 3.91602C38.7793 3.91602 37.2917 7.61068 34.3164 15C34.3164 15 33.61 15 32.1973 15ZM50.1855 10.6445C50.1855 10.6445 47.3242 10.6445 41.6016 10.6445C41.7643 11.3151 42.1191 11.8457 42.666 12.2363C43.2129 12.627 43.8802 12.8223 44.668 12.8223C45.2148 12.8223 45.6706 12.7409 46.0352 12.5781C46.3997 12.4089 46.7546 12.1224 47.0996 11.7188H50C49.8438 12.2201 49.5508 12.7344 49.1211 13.2617C47.9753 14.5964 46.5104 15.2637 44.7266 15.2637C43.8932 15.2637 43.1055 15.1139 42.3633 14.8145C41.6211 14.515 40.9831 14.1113 40.4492 13.6035C39.9219 13.0892 39.502 12.4772 39.1895 11.7676C38.877 11.0514 38.7207 10.2962 38.7207 9.50195C38.7207 8.43424 38.9779 7.45443 39.4922 6.5625C40.013 5.66406 40.7194 4.95768 41.6113 4.44336C42.5098 3.92253 43.4928 3.66211 44.5605 3.66211C45.6478 3.66211 46.6276 3.91927 47.5 4.43359C48.3724 4.94141 49.0527 5.65104 49.541 6.5625C50.0358 7.46745 50.2832 8.48633 50.2832 9.61914C50.2832 9.98372 50.2507 10.3255 50.1855 10.6445ZM41.5234 8.30078H47.666C47.4967 7.59115 47.1484 7.04753 46.6211 6.66992C46.0938 6.29232 45.4199 6.10352 44.5996 6.10352C43.8053 6.10352 43.1445 6.29232 42.6172 6.66992C42.0964 7.04102 41.7318 7.58464 41.5234 8.30078ZM51.9238 15C51.9238 15 51.9238 10.0749 51.9238 0.224609C51.9238 0.224609 52.8092 0.224609 54.5801 0.224609C54.5801 0.224609 54.5801 5.14974 54.5801 15C54.5801 15 53.6947 15 51.9238 15Z" fill="white"/>
<path d="M57.1484 15C57.1484 15 57.1484 14.1471 57.1484 12.4414C57.1484 12.4414 58.0339 12.4414 59.8047 12.4414C59.8047 12.4414 59.8047 13.2943 59.8047 15C59.8047 15 58.9193 15 57.1484 15Z" fill="url(#paint0_linear_1_8)"/>
<defs>
<linearGradient id="paint0_linear_1_8" x1="31" y1="-6" x2="31" y2="21" gradientUnits="userSpaceOnUse">
<stop stop-color="#C2A97D"/>
<stop offset="1" stop-color="#A67C46"/>
</linearGradient>
</defs>
</svg>
