<svg width="24" height="24" viewBox="0 0 24 24" fill="none" xmlns="http://www.w3.org/2000/svg">
<g id="Frame 973">
<path id="Union" fill-rule="evenodd" clip-rule="evenodd" d="M15.5 9.5C15.5 12.8137 12.8137 15.5 9.5 15.5C6.18629 15.5 3.5 12.8137 3.5 9.5C3.5 6.18629 6.18629 3.5 9.5 3.5C12.8137 3.5 15.5 6.18629 15.5 9.5ZM15.8199 14.4056C16.8729 13.051 17.5 11.3487 17.5 9.5C17.5 5.08172 13.9183 1.5 9.5 1.5C5.08172 1.5 1.5 5.08172 1.5 9.5C1.5 13.9183 5.08172 17.5 9.5 17.5C11.3487 17.5 13.051 16.8729 14.4056 15.8199L21.2929 22.7071C21.6834 23.0976 22.3166 23.0976 22.7071 22.7071C23.0976 22.3166 23.0976 21.6834 22.7071 21.2929L15.8199 14.4056Z" fill="url(#paint0_linear_2_4977)"/>
</g>
<defs>
<linearGradient id="paint0_linear_2_4977" x1="12.25" y1="1.5" x2="12.25" y2="23" gradientUnits="userSpaceOnUse">
<stop stop-color="#C2A97D"/>
<stop offset="1" stop-color="#A67C46"/>
</linearGradient>
</defs>
</svg>
